General
Complete name                  : C:\Users\joeyz\Code\Playground\stereoscopic\Dataset\videos\woodencoaster.mp4
Format                         : MPEG-4
Format profile                 : Base Media / Version 2
Codec ID                       : mp42 (mp41/mp42/isom)
File size                      : 72.8 MiB
Duration                       : 59 s 999 ms
Overall bit rate               : 10.2 Mb/s
Frame rate                     : 30.000 FPS
Encoded date                   : 2017-04-10 23:52:08 UTC
Tagged date                    : 2017-04-10 23:52:11 UTC

Video
ID                             : 1
Format                         : AVC
Format/Info                    : Advanced Video Codec
Format profile                 : High@L5
Format settings                : CABAC / 3 Ref Frames
Format settings, CABAC         : Yes
Format settings, Reference fra : 3 frames
Codec ID                       : avc1
Codec ID/Info                  : Advanced Video Coding
Duration                       : 59 s 999 ms
Source duration                : 1 min 4 s
Bit rate                       : 9 326 kb/s
Width                          : 2 560 pixels
Height                         : 1 440 pixels
Display aspect ratio           : 16:9
Frame rate mode                : Constant
Frame rate                     : 30.000 FPS
Color space                    : YUV
Chroma subsampling             : 4:2:0
Bit depth                      : 8 bits
Scan type                      : Progressive
Bits/(Pixel*Frame)             : 0.084
Stream size                    : 66.7 MiB (92%)
Source stream size             : 71.9 MiB (99%)
Title                          : Core Media Video
Encoded date                   : 2017-04-10 23:52:08 UTC
Tagged date                    : 2017-04-10 23:52:11 UTC
Color range                    : Limited
Color primaries                : BT.709
Transfer characteristics       : BT.709
Matrix coefficients            : BT.709
Codec configuration box        : avcC

Audio
ID                             : 2
Format                         : AAC LC
Format/Info                    : Advanced Audio Codec Low Complexity
Codec ID                       : mp4a-40-2
Duration                       : 59 s 999 ms
Source duration                : 1 min 0 s
Bit rate mode                  : Constant
Bit rate                       : 126 kb/s
Channel(s)                     : 2 channels
Channel layout                 : L R
Sampling rate                  : 44.1 kHz
Frame rate                     : 43.066 FPS (1024 SPF)
Compression mode               : Lossy
Stream size                    : 920 KiB (1%)
Source stream size             : 921 KiB (1%)
Title                          : Core Media Audio
Default                        : Yes
Alternate group                : 1
Encoded date                   : 2017-04-10 23:52:08 UTC
Tagged date                    : 2017-04-10 23:52:11 UTC

